<?xml version="1.0" standalone="no"?>
<!DOCTYPE svg PUBLIC "-//W3C//DTD SVG 20010904//EN"
 "http://www.w3.org/TR/2001/REC-SVG-20010904/DTD/svg10.dtd">
<svg version="1.0" xmlns="http://www.w3.org/2000/svg"
 width="517.000000pt" height="517.000000pt" viewBox="0 0 517.000000 517.000000"
 preserveAspectRatio="xMidYMid meet">
<metadata>
Created by potrace 1.11, written by Peter Selinger 2001-2013
</metadata>
<g transform="translate(0.000000,517.000000) scale(0.100000,-0.100000)"
fill="#000000" stroke="none">
<path d="M2399 5166 c-2 -2 -35 -6 -74 -10 -38 -3 -83 -8 -100 -11 -16 -3 -46
-8 -65 -11 -136 -23 -254 -52 -373 -90 -772 -249 -1391 -860 -1650 -1626 -46
-136 -82 -279 -101 -398 -8 -52 -18 -111 -21 -130 -11 -58 -14 -480 -4 -555 5
-38 11 -90 14 -115 30 -254 134 -577 266 -830 564 -1073 1781 -1611 2956
-1305 351 92 685 262 968 493 294 241 522 528 690 867 27 55 49 102 50 105 0
3 15 39 32 80 67 159 132 409 159 605 4 28 9 64 11 80 11 74 9 448 -2 545 -17
141 -34 242 -55 319 -5 20 -11 47 -14 61 -10 55 -80 259 -121 354 -313 727
-927 1267 -1685 1481 -100 28 -263 62 -340 70 -30 4 -66 9 -80 12 -28 5 -456
14 -461 9z"/>
</g>
</svg>
